HIERARCHY
ROOT hip
{
	OFFSET 0.000000 0.000000 0.000000 
	CHANNELS 6 Xposition Yposition Zposition Xrotation Zrotation Yrotation
	JOINT abdomen
	{
		OFFSET 0.000000 3.402643 0.000000 
		CHANNELS 3 Xrotation Zrotation Yrotation
		JOINT chest
		{
			OFFSET 0.000000 8.438565 -0.680529 
			CHANNELS 3 Xrotation Zrotation Yrotation
			JOINT neck
			{
				OFFSET 0.000000 10.207942 -0.272212 
				CHANNELS 3 Xrotation Zrotation Yrotation
				JOINT head
				{
					OFFSET 0.000000 3.130431 0.000000 
					CHANNELS 3 Xrotation Zrotation Yrotation
					End Site
					{
						OFFSET 0.000000 3.130435 0.000000 
					}
				}
			}
			JOINT lCollar
			{
				OFFSET 3.470700 6.669187 -0.816635 
				CHANNELS 3 Yrotation Zrotation Xrotation
				JOINT lShldr
				{
					OFFSET 3.198488 0.000000 0.000000 
					CHANNELS 3 Zrotation Yrotation Xrotation
					JOINT lForeArm
					{
						OFFSET 10.139888 0.000000 0.000000 
						CHANNELS 3 Yrotation Zrotation Xrotation
						JOINT lHand
						{
							OFFSET 8.370511 0.000000 0.000000 
							CHANNELS 3 Zrotation Yrotation Xrotation
							End Site
							{
								OFFSET 4.083176 0.000000 0.000000 
							}
						}
					}
				}
			}
			JOINT rCollar
			{
				OFFSET -3.470700 6.669187 -0.816635 
				CHANNELS 3 Yrotation Zrotation Xrotation
				JOINT rShldr
				{
					OFFSET -3.198488 0.000000 0.000000 
					CHANNELS 3 Zrotation Yrotation Xrotation
					JOINT rForeArm
					{
						OFFSET -10.139888 0.000000 0.000000 
						CHANNELS 3 Yrotation Zrotation Xrotation
						JOINT rHand
						{
							OFFSET -8.370511 0.000000 0.000000 
							CHANNELS 3 Zrotation Yrotation Xrotation
							End Site
							{
								OFFSET -4.083176 0.000000 0.000000 
							}
						}
					}
				}
			}
		}
	}
	JOINT lThigh
	{
		OFFSET 5.308129 -1.633274 1.361059 
		CHANNELS 3 Xrotation Zrotation Yrotation
		JOINT lShin
		{
			OFFSET -2.041588 -20.007561 0.000000 
			CHANNELS 3 Xrotation Zrotation Yrotation
			JOINT lFoot
			{
				OFFSET 0.000000 -19.190928 -1.224953 
				CHANNELS 3 Xrotation Yrotation Zrotation
				End Site
				{
					OFFSET 0.000000 -2.449906 4.627600 
				}
			}
		}
	}
	JOINT rThigh
	{
		OFFSET -5.308129 -1.633274 1.361059 
		CHANNELS 3 Xrotation Zrotation Yrotation
		JOINT rShin
		{
			OFFSET 2.041588 -20.007561 0.000000 
			CHANNELS 3 Xrotation Zrotation Yrotation
			JOINT rFoot
			{
				OFFSET 0.000000 -19.190928 -1.224953 
				CHANNELS 3 Xrotation Yrotation Zrotation
				End Site
				{
					OFFSET 0.000000 -2.449906 4.627600 
				}
			}
		}
	}
}
MOTION
Frames: 13
Frame Time: 0.033333
-0.190151 46.986034 1.391528 10.678104 5.000680 -4.979462 0.000000 0.000000 0.000000 -9.711717 -5.464373 5.365808 36.246536 -4.169770 -0.489829 -21.007120 1.032299 4.258528 -12.327031 8.392596 24.999113 -73.702957 3.007866 -15.620098 -41.779278 -2.206347 62.523502 -8.217576 -4.457577 -62.848976 6.225089 -11.388436 24.995443 58.942799 14.771584 71.532990 13.081391 -40.616428 21.575768 32.872375 2.217018 -80.837196 -2.528579 4.644910 18.591129 24.865154 1.839756 -0.412203 -9.903673 5.277438 -22.710421 -12.749741 -13.540075 -2.567859 38.452553 0.269700 2.503767 -8.333856 2.794265 28.198137 
-0.187961 47.009136 1.375316 10.752520 5.090222 -4.715090 0.000000 0.000000 0.000000 -9.743044 -5.893018 5.281209 36.424393 -3.554578 -0.450171 -21.133202 0.954615 4.072838 -12.434760 8.844296 24.997265 -74.389168 2.553856 -15.290998 -41.020893 -0.982394 57.783577 -6.411769 -6.561274 -62.908363 6.151823 -10.752825 24.994879 58.506992 15.068082 71.280701 10.982717 -38.798008 9.722190 29.793118 -0.616601 -80.830154 -2.762768 4.468695 18.518499 24.923069 1.986129 -0.383902 -9.810550 5.167257 -22.792032 -12.992931 -13.588002 -2.602381 38.812374 0.214847 2.540493 -8.456359 2.308268 28.166439 
-0.121658 46.952106 1.364433 10.914570 5.611227 -4.022884 0.000000 0.000000 0.000000 -9.903454 -6.672702 5.122554 36.468166 -3.115151 -0.420894 -21.121878 0.847505 4.033772 -12.956465 9.711857 24.996386 -75.563477 1.987457 -14.746185 -41.458328 -1.347853 56.728951 -5.648562 -5.963186 -63.198456 5.734924 -11.181287 24.998568 59.944897 15.812180 71.717293 10.018950 -39.830585 9.084607 28.727701 -0.515362 -80.820374 -3.140887 3.526556 18.209444 24.798458 2.738165 -0.191001 -9.621069 4.400093 -23.378683 -13.395315 -14.810548 -2.978221 39.598347 0.845969 2.740512 -8.917433 2.530878 27.554245 
-0.135996 47.050293 1.392173 11.798635 5.393074 -2.991019 0.000000 0.000000 0.000000 -11.121442 -6.789732 5.093452 37.613289 -2.412059 -0.371587 -22.120510 1.003626 3.818970 -14.337091 8.645749 24.994678 -74.924385 2.874410 -15.107059 -43.129475 -2.035855 58.144272 -5.357277 -5.838919 -63.269947 5.183208 -9.331345 24.999399 59.027115 15.142493 71.480804 10.973010 -40.881214 10.201635 28.992138 -1.681236 -80.881920 -4.656729 3.562097 18.157677 25.476561 3.411063 -0.110375 -9.890429 3.260875 -23.629335 -14.175788 -14.888119 -2.974950 39.979755 1.279260 2.908090 -9.522896 1.629668 27.532225 
-0.306596 47.206470 1.507630 13.782125 5.543545 -1.991071 0.000000 0.000000 0.000000 -13.946624 -7.345710 4.962538 39.204784 -2.304636 -0.381337 -22.916569 1.997710 3.732964 -14.801559 5.708690 24.994583 -71.905724 4.921564 -16.570971 -45.015438 -4.497327 60.793343 -5.613473 -5.968099 -63.158512 4.686669 -6.658417 24.995924 57.960133 14.389221 71.203606 13.219954 -41.341351 13.377011 28.686119 -2.473220 -80.879051 -7.617191 4.072400 18.197836 27.280848 3.181483 -0.265071 -11.028707 2.300344 -24.327089 -16.557341 -14.584986 -2.784402 41.038170 0.976414 2.927499 -10.602668 0.428100 27.470936 
-0.675779 47.176849 1.965574 13.768537 6.022513 -1.777287 0.000000 0.000000 0.000000 -14.929670 -8.204350 4.764571 39.609035 -3.535038 -0.469664 -22.355774 2.786953 3.764334 -13.771216 3.890842 24.997320 -69.244781 5.957469 -17.783407 -45.250309 -8.648146 66.288155 -6.080954 -4.185851 -63.201283 4.068632 -5.855580 24.996933 59.625988 14.443513 71.893463 16.030613 -42.610432 21.548782 29.230644 -0.358034 -80.810753 -7.397314 4.788145 18.432465 28.592541 2.190160 -0.581472 -12.602219 2.309817 -25.046864 -16.893600 -14.374161 -2.695579 43.047798 0.432848 3.034226 -12.651422 0.181374 27.116428 
-1.253709 46.869736 2.772022 10.893982 5.310075 -1.735556 0.000000 0.000000 0.000000 -12.525151 -7.755348 4.877957 38.182262 -5.937123 -0.648145 -22.096346 1.861343 3.703340 -13.532329 3.865902 24.995127 -69.008766 3.445750 -17.557072 -45.214661 -9.733105 75.923187 -13.685299 -6.092118 -61.067719 3.676991 -6.662830 24.994133 62.377346 13.884077 73.181503 19.063009 -45.888672 34.996559 28.176762 9.243351 -80.043991 -3.436682 6.167210 19.075701 29.496405 2.288106 -0.565792 -14.482207 1.919635 -24.485317 -13.990644 -13.092215 -2.406365 46.029011 0.459053 3.313611 -15.410350 -0.492219 26.699574 
-1.799560 46.419514 3.445372 8.009693 5.126947 -0.087539 0.000000 0.000000 0.000000 -8.740590 -8.164958 4.804626 35.037167 -7.069792 -0.698905 -25.063564 -0.048575 5.839842 -14.424083 5.827227 24.997124 -71.016731 -2.068357 -16.169815 -46.493656 -6.397813 79.322708 -19.566639 -12.471525 -57.231575 5.594330 -6.830797 24.994347 61.082497 12.361261 72.987961 19.989872 -46.952477 37.400459 25.510735 19.282143 -78.735847 -0.332354 6.463985 19.274065 30.478815 3.657908 -0.295669 -15.315638 -0.347743 -23.512102 -13.483635 -13.737227 -2.619584 53.193077 1.787068 4.314014 -18.310316 -1.218650 26.354408 
-2.533474 45.685993 3.733057 8.128073 5.017589 1.598507 0.000000 0.000000 0.000000 -5.603401 -7.462787 4.933479 28.537436 -8.407492 -0.751345 -29.046295 1.586842 10.003969 -15.133505 9.095977 24.993767 -72.178886 -12.434447 -14.966920 -50.280178 -0.100803 69.847290 -16.007162 -16.619452 -57.488842 7.922613 -11.225227 24.998426 60.944931 13.493999 72.672569 19.022692 -47.423519 36.836887 25.124464 22.200098 -78.096542 -2.353458 7.783812 19.694229 34.046978 4.952803 -0.239385 -16.933903 -2.233378 -23.610630 -20.765863 -14.029258 -2.426757 66.265251 1.855438 5.537230 -18.860302 -0.095868 28.215000 
-3.385896 45.082695 3.877450 9.383149 5.662451 3.640996 0.000000 0.000000 0.000000 -2.458095 -6.731877 5.043823 23.659904 -7.948650 -0.690530 -31.648764 3.654503 12.976583 -17.075548 14.221540 24.988958 -68.088005 -22.200319 -16.085932 -58.676918 6.174178 54.117649 -8.955288 -13.799686 -60.459606 10.305073 -15.686599 24.994383 58.580307 14.672259 71.398407 18.604580 -48.674480 34.679310 30.424545 12.237514 -79.436142 -5.038637 9.215768 20.104734 36.414246 4.746434 -0.416681 -18.238787 -4.564975 -23.575375 -29.583817 -14.596697 -2.179348 79.301109 1.084100 6.462623 -15.289853 4.889677 31.864336 
-4.124160 44.929134 4.117211 11.038274 7.636940 8.199094 0.000000 0.000000 0.000000 -0.044165 -7.629623 4.807614 24.911608 -2.011697 -0.263852 -32.478401 1.284927 12.933169 -21.301075 20.363491 24.995588 -62.078243 -27.490252 -18.195189 -66.581451 13.971016 47.642143 -8.076148 -8.916030 -60.733994 11.404534 -13.780592 24.999411 48.543312 11.170898 67.906242 21.403057 -47.911530 25.669003 35.634281 5.221662 -80.624313 -7.509688 7.392352 19.313795 36.127640 6.016738 -0.124275 -16.956013 -7.628416 -25.275042 -34.202312 -17.633142 -2.933463 87.254921 1.533068 7.197364 -9.675041 9.944126 38.589275 
-4.988349 44.954540 4.415701 14.801655 8.577965 14.037589 0.000000 0.000000 0.000000 1.146370 -4.978390 5.341960 26.483603 0.566406 -0.078121 -30.530569 0.317474 9.892750 -28.719767 29.999510 24.990374 -57.446140 -28.011873 -19.811058 -73.111534 27.660749 41.851898 -8.557096 -3.802378 -60.257587 8.719413 -14.952703 24.991680 43.172325 9.235903 66.056610 23.284853 -49.188671 21.705469 33.699448 -3.355201 -81.134903 -11.780548 5.569288 18.430359 34.925507 7.643525 0.310033 -12.888651 -11.405927 -29.435114 -36.206810 -19.343517 -3.379205 88.798637 3.378752 7.717164 -4.604484 12.268951 39.599304 
-6.071501 45.071175 4.630778 20.846144 9.175092 20.677353 0.000000 0.000000 0.000000 0.298867 -2.088192 5.980407 28.050220 2.802732 0.068755 -28.321215 0.280620 7.744238 -37.099850 29.997334 24.990276 -61.356266 -24.969961 -18.454252 -69.626289 36.518860 32.439896 -5.295630 -5.514153 -60.128922 6.284428 -16.627937 24.994398 40.195759 7.567686 65.150002 23.238905 -52.151951 18.437216 30.125574 -2.683139 -80.805161 -18.144640 4.600053 17.531307 33.868130 6.401932 0.086913 -7.921718 -17.018568 -33.337257 -37.982887 -19.743256 -3.407755 85.284714 3.349669 7.430341 -5.206705 11.362590 39.834026 
